<svg xmlns="http://www.w3.org/2000/svg" xmlns:xlink="http://www.w3.org/1999/xlink" width="15.35595703125" height="18.2615966796875" viewBox="0 0 15.35595703125 18.2615966796875" fill="none">
<rect x="0" y="0" width="15.356084823608398" height="18.2615966796875"   fill="#FFFFFF" >
</rect>
<path d="M1.96737 7.67558C1.89836 6.02414 2.09666 4.41976 2.8606 2.92845C3.64825 1.39085 4.86638 0.390595 6.59412 0.102074C8.19056 -0.164472 9.69577 0.0670912 11.0138 1.08094C11.7813 1.6713 12.3156 2.44564 12.6942 3.3278C13.2904 4.71708 13.4715 6.1755 13.3888 7.67472C12.7695 7.84957 12.1425 7.98813 11.5097 8.10619C10.4094 8.31146 9.29966 8.41898 8.18278 8.45889C7.61857 8.47905 7.0542 8.46396 6.49057 8.42849C5.64859 8.37551 4.81314 8.26946 3.98137 8.12953C3.30147 8.01514 2.63156 7.85864 1.96737 7.67558ZM7.68296 5.62074C7.0263 5.61462 6.37306 5.66257 5.72537 5.76598C5.26461 5.83957 4.80264 5.921 4.38439 6.14702C4.12531 6.28702 4.12113 6.40166 4.36584 6.55648C4.69455 6.76442 5.04742 6.92345 5.41107 7.05842C6.4877 7.45809 7.58791 7.63481 8.73053 7.40376C9.54612 7.23884 10.3252 6.97692 11.0335 6.5307C11.2248 6.41018 11.2203 6.29565 11.026 6.17283C10.8013 6.03085 10.5482 5.95883 10.2933 5.89745C9.43555 5.69095 8.56246 5.6242 7.68296 5.62074ZM10.184 3.66438C10.181 3.32383 10.1014 2.96709 9.86873 2.65954C9.49887 2.17074 8.94491 2.16235 8.55458 2.63568C8.09354 3.19475 8.05627 4.18943 8.47414 4.78242C8.84382 5.3071 9.43288 5.32534 9.83176 4.82021C10.0898 4.49353 10.1809 4.11104 10.184 3.66438ZM7.18137 3.77909C7.18505 3.3532 7.04455 2.91979 6.80953 2.63219C6.44053 2.1807 5.87724 2.17543 5.52252 2.62017C5.04968 3.213 5.06487 4.27042 5.55453 4.84989C5.9555 5.32435 6.53815 5.29436 6.89096 4.7802C7.09778 4.47874 7.17281 4.13839 7.18137 3.77909Z"   fill="#020201" >
</path>
<path d="M14.2078 9.72516C14.5189 10.4581 14.773 11.2113 14.9854 11.9777C15.1925 12.7248 15.3601 13.4803 15.356 14.2626C15.3551 14.4337 15.3471 14.6043 15.305 14.7712C15.2404 15.0269 15.1456 15.0628 14.938 14.9046C14.7046 14.7268 14.525 14.4975 14.3482 14.2672C14.078 13.9151 13.8312 13.5464 13.5751 13.1432C13.4788 14.6263 12.824 15.7974 11.7463 16.7504C11.6189 16.8459 11.4955 16.9475 11.3635 17.0363C9.66225 18.1794 7.80365 18.3373 5.85906 17.8892C5.02499 17.697 4.28655 17.293 3.62212 16.7546C2.76464 16.0081 2.17301 15.0967 1.90346 13.9852C1.83951 13.7213 1.81518 13.4515 1.79365 13.1382C1.51317 13.5696 1.25391 13.9626 0.962861 14.3329C0.797189 14.5435 0.631176 14.755 0.412688 14.9151C0.220044 15.0562 0.136661 15.0301 0.0711451 14.8024C-0.0252112 14.4676 -0.00614536 14.1243 0.0267493 13.7842C0.142582 12.5836 0.507299 11.446 0.92069 10.3219C0.995036 10.1196 1.05343 9.91077 1.15862 9.72064C1.41452 9.79465 1.66868 9.87576 1.92677 9.94107C2.39879 10.0605 2.87325 10.1707 3.34664 10.2847C3.29256 10.6111 3.2557 10.9399 3.23954 11.27C3.19254 12.2287 3.1872 13.1855 3.42842 14.1252C3.6542 15.005 4.05622 15.7858 4.73743 16.4022C5.50718 17.0986 6.43183 17.4088 7.45379 17.4515C8.39671 17.4909 9.2938 17.3167 10.0997 16.8015C11.1571 16.1257 11.7279 15.1198 11.9814 13.9212C12.2368 12.7129 12.1885 11.4965 12.0171 10.2813C12.0602 10.2683 12.1027 10.2519 12.1466 10.2428C12.841 10.0994 13.5295 9.93259 14.2078 9.72516Z"   fill="#020201" >
</path>
<path d="M14.2078 9.72522C13.5296 9.93267 12.8411 10.0994 12.1467 10.2429C12.1028 10.2519 12.0603 10.2684 12.0171 10.2814C11.5565 10.3551 11.0966 10.4335 10.6351 10.5018C9.35736 10.691 8.07307 10.7657 6.78247 10.6971C6.63587 10.6893 6.60089 10.7285 6.60222 10.8702C6.60886 11.5828 6.604 12.2955 6.60694 13.0081C6.60732 13.0997 6.59794 13.149 6.48625 13.1626C5.74066 13.2536 4.99938 13.2016 4.25845 13.1126C4.11859 13.0957 4.05544 13.0298 4.07488 12.8792C4.09004 12.7614 4.07793 12.6401 4.07793 12.5204C4.07785 11.8647 4.07841 11.2091 4.0769 10.5535C4.07669 10.4901 4.10308 10.4039 4.00262 10.3892C3.78352 10.357 3.56969 10.292 3.34671 10.2847C2.87332 10.1707 2.39886 10.0606 1.92683 9.94116C1.66874 9.87579 1.41459 9.7947 1.15869 9.7207C1.28719 9.31366 1.46977 8.92758 1.62085 8.52924C1.72974 8.24219 1.85133 7.95993 1.96726 7.67557C2.63149 7.85867 3.30143 8.01514 3.98133 8.12952C4.81307 8.26944 5.64855 8.37552 6.49053 8.4285C7.05409 8.46393 7.61849 8.47903 8.1827 8.45889C9.29958 8.41898 10.4093 8.31146 11.5096 8.10617C12.1424 7.98813 12.7694 7.84961 13.3887 7.67474C13.6774 8.35199 13.9541 9.03399 14.2078 9.72522Z"   fill="#E52020" >
</path>
<path d="M3.62203 16.7547C4.28649 17.293 5.02489 17.6971 5.85896 17.8893C7.80355 18.3374 9.66218 18.1795 11.3634 17.0363C11.4955 16.9475 11.6189 16.8459 11.7462 16.7504C12.1194 16.8871 12.4995 17.0075 12.8466 17.2069C13.0343 17.3147 13.2276 17.4182 13.3416 17.6142C13.4756 17.8445 13.4121 18.0062 13.1597 18.0858C12.819 18.1931 12.4646 18.2111 12.1125 18.2278C10.7728 18.2911 9.43504 18.2494 8.09858 18.1429C7.78031 18.1175 7.46163 18.1323 7.14233 18.1524C5.5779 18.2507 4.01303 18.3422 2.44881 18.1445C2.3516 18.1322 2.25842 18.1103 2.16806 18.0744C1.95625 17.9902 1.90113 17.8469 2.00365 17.6396C2.09151 17.4621 2.25325 17.3621 2.4141 17.2647C2.79165 17.036 3.20798 16.8978 3.62203 16.7547Z"   fill="#FAAF08" >
</path>
<path d="M7.6829 5.62076C8.5624 5.62421 9.43549 5.69095 10.2933 5.89746C10.5481 5.95883 10.8013 6.03085 11.0259 6.17285C11.2202 6.29562 11.2247 6.41019 11.0334 6.5307C10.3251 6.97693 9.54605 7.23886 8.7305 7.40378C7.58784 7.63483 6.48765 7.4581 5.41101 7.05844C5.04735 6.92343 4.69447 6.76444 4.36578 6.55649C4.12106 6.40167 4.12524 6.28702 4.38432 6.14703C4.80257 5.92099 5.26455 5.8396 5.72531 5.76599C6.373 5.66257 7.02623 5.61462 7.6829 5.62076Z"   fill="#FAAF08" >
</path>
<path d="M9.22621 3.48297C9.37587 3.49331 9.53817 3.51402 9.68996 3.58772C9.8073 3.64467 9.82702 3.73305 9.77608 3.84129C9.72506 3.94976 9.64083 3.96896 9.5364 3.91334C9.21156 3.74033 8.91325 3.78029 8.64442 4.02989C8.5901 4.08025 8.53743 4.12498 8.46864 4.06563C8.39449 4.00158 8.40529 3.9259 8.46025 3.85368C8.64885 3.60564 8.90297 3.4891 9.22621 3.48297Z"   fill="#020201" >
</path>
<path d="M6.91533 3.85722C6.91354 4.16953 6.72324 4.42235 6.48764 4.42536C6.25594 4.4283 6.06699 4.19743 6.04604 3.88577C6.02478 3.56901 6.21851 3.28521 6.46367 3.27401C6.70639 3.26295 6.91718 3.53508 6.91533 3.85722Z"   fill="#020201" >
</path>
</svg>
